<svg width="173" height="33" viewBox="0 0 184 43" fill="none" xmlns="http://www.w3.org/2000/svg">
<g filter="url(#filter0_d_6432_202)">
<mask id="path-1-outside-1_6432_202" maskUnits="userSpaceOnUse" x="4" y="0" width="176" height="35" fill="black">
<rect fill="white" x="4" width="176" height="35"/>
<path d="M10.1904 33.6066L12.5922 26.7282H22.8126L25.2017 33.6066H29.3921L19.9765 7.61607H15.4156L6 33.6066H10.1904ZM13.742 23.4287L17.6002 12.337H17.8046L21.6628 23.4287H13.742Z"/>
<path d="M32.8638 33.6066H36.6837V21.7027C36.6837 19.1519 38.6639 17.3118 41.3723 17.3118C42.1644 17.3118 43.0587 17.4514 43.3653 17.5402V13.9107C42.9821 13.8599 42.2283 13.8218 41.7428 13.8218C39.4432 13.8218 37.4758 15.1163 36.7604 17.2102H36.556V14.1137H32.8638V33.6066Z"/>
<path d="M54.2342 34C59.766 34 63.3815 29.9771 63.3815 23.949C63.3815 17.8828 59.766 13.8599 54.2342 13.8599C48.7023 13.8599 45.0868 17.8828 45.0868 23.949C45.0868 29.9771 48.7023 34 54.2342 34ZM54.2469 30.8146C50.6314 30.8146 48.9451 27.68 48.9451 23.9363C48.9451 20.2052 50.6314 17.0326 54.2469 17.0326C57.8369 17.0326 59.5232 20.2052 59.5232 23.9363C59.5232 27.68 57.8369 30.8146 54.2469 30.8146Z"/>
<path d="M80.0759 25.5226C80.0887 28.8349 77.6102 30.4085 75.464 30.4085C73.1005 30.4085 71.4652 28.708 71.4652 26.0556V14.1137H67.6453V26.5125C67.6453 31.3476 70.3154 33.8604 74.0842 33.8604C77.0353 33.8604 79.0411 32.3121 79.9482 30.2309H80.1526V33.6066H83.9086V14.1137H80.0759V25.5226Z"/>
<path d="M92.8611 22.0327C92.8611 18.9235 94.7774 17.1468 97.4347 17.1468C100.028 17.1468 101.6 18.8346 101.6 21.6647V33.6066H105.419V21.2078C105.419 16.3853 102.749 13.8599 98.7378 13.8599C95.7867 13.8599 93.8576 15.2178 92.9505 17.2864H92.7078V14.1137H89.0412V33.6066H92.8611V22.0327Z"/>
<path d="M117.888 33.9873C121.466 33.9873 122.871 31.8172 123.561 30.5735H123.88V33.6066H127.611V7.61607H123.791V17.2737H123.561C122.871 16.0681 121.568 13.8599 117.914 13.8599C113.174 13.8599 109.687 17.5783 109.687 23.8982C109.687 30.2055 113.123 33.9873 117.888 33.9873ZM118.732 30.7512C115.321 30.7512 113.545 27.7689 113.545 23.8601C113.545 19.9895 115.282 17.0833 118.732 17.0833C122.066 17.0833 123.855 19.7864 123.855 23.8601C123.855 27.9592 122.028 30.7512 118.732 30.7512Z"/>
<path d="M132.6 2.0491H135.343V9.78195H136.399V2.0491H139.141V1.11845H132.6V2.0491Z"/>
<path d="M141.64 5.87322C141.64 4.73952 142.368 4.09653 143.36 4.09653C144.306 4.09653 144.876 4.68876 144.876 5.72093V9.78195H145.881V5.65325C145.881 3.98231 144.987 3.19972 143.65 3.19972C142.619 3.19972 142.032 3.62697 141.725 4.29958H141.64V1.11845H140.635V9.78195H141.64V5.87322Z"/>
<path d="M150.463 9.91732C151.791 9.91732 152.762 9.2574 153.069 8.27599L152.098 8.00526C151.842 8.68209 151.25 9.02051 150.463 9.02051C149.283 9.02051 148.47 8.2633 148.423 6.87156H153.171V6.44853C153.171 4.02884 151.723 3.19972 150.36 3.19972C148.589 3.19972 147.413 4.58723 147.413 6.5839C147.413 8.58057 148.572 9.91732 150.463 9.91732ZM148.423 6.00859C148.491 4.99757 149.211 4.09653 150.36 4.09653C151.451 4.09653 152.149 4.90873 152.149 6.00859H148.423Z"/>
<path d="M163.932 1.11845V6.77003C163.932 8.0391 163.055 8.95283 161.599 8.95283C160.142 8.95283 159.265 8.0391 159.265 6.77003V1.11845H158.209V6.85463C158.209 8.63133 159.546 9.93424 161.599 9.93424C163.651 9.93424 164.988 8.63133 164.988 6.85463V1.11845H163.932Z"/>
<path d="M167.284 9.84964C167.705 9.84964 168.05 9.50699 168.05 9.08819C168.05 8.6694 167.705 8.32675 167.284 8.32675C166.862 8.32675 166.517 8.6694 166.517 9.08819C166.517 9.50699 166.862 9.84964 167.284 9.84964Z"/>
<path d="M174.76 3.28432H175.782C175.735 1.97718 174.521 1 172.835 1C171.165 1 169.854 1.96449 169.854 3.41969C169.854 4.58723 170.705 5.28099 172.068 5.67017L173.141 5.97475C174.061 6.22856 174.879 6.55006 174.879 7.41302C174.879 8.3606 173.959 8.98667 172.75 8.98667C171.71 8.98667 170.791 8.5298 170.705 7.54839H169.615C169.717 8.96975 170.876 9.93424 172.75 9.93424C174.76 9.93424 175.901 8.83438 175.901 7.42994C175.901 5.80554 174.351 5.28099 173.448 5.0441L172.562 4.8072C171.915 4.638 170.876 4.29958 170.876 3.36893C170.876 2.5398 171.642 1.93065 172.801 1.93065C173.857 1.93065 174.657 2.42982 174.76 3.28432Z"/>
<path d="M178.233 9.84964C178.655 9.84964 179 9.50699 179 9.08819C179 8.6694 178.655 8.32675 178.233 8.32675C177.812 8.32675 177.467 8.6694 177.467 9.08819C177.467 9.50699 177.812 9.84964 178.233 9.84964Z"/>
</mask>
<path d="M10.1904 33.6066L12.5922 26.7282H22.8126L25.2017 33.6066H29.3921L19.9765 7.61607H15.4156L6 33.6066H10.1904ZM13.742 23.4287L17.6002 12.337H17.8046L21.6628 23.4287H13.742Z" fill="white"/>
<path d="M32.8638 33.6066H36.6837V21.7027C36.6837 19.1519 38.6639 17.3118 41.3723 17.3118C42.1644 17.3118 43.0587 17.4514 43.3653 17.5402V13.9107C42.9821 13.8599 42.2283 13.8218 41.7428 13.8218C39.4432 13.8218 37.4758 15.1163 36.7604 17.2102H36.556V14.1137H32.8638V33.6066Z" fill="white"/>
<path d="M54.2342 34C59.766 34 63.3815 29.9771 63.3815 23.949C63.3815 17.8828 59.766 13.8599 54.2342 13.8599C48.7023 13.8599 45.0868 17.8828 45.0868 23.949C45.0868 29.9771 48.7023 34 54.2342 34ZM54.2469 30.8146C50.6314 30.8146 48.9451 27.68 48.9451 23.9363C48.9451 20.2052 50.6314 17.0326 54.2469 17.0326C57.8369 17.0326 59.5232 20.2052 59.5232 23.9363C59.5232 27.68 57.8369 30.8146 54.2469 30.8146Z" fill="white"/>
<path d="M80.0759 25.5226C80.0887 28.8349 77.6102 30.4085 75.464 30.4085C73.1005 30.4085 71.4652 28.708 71.4652 26.0556V14.1137H67.6453V26.5125C67.6453 31.3476 70.3154 33.8604 74.0842 33.8604C77.0353 33.8604 79.0411 32.3121 79.9482 30.2309H80.1526V33.6066H83.9086V14.1137H80.0759V25.5226Z" fill="white"/>
<path d="M92.8611 22.0327C92.8611 18.9235 94.7774 17.1468 97.4347 17.1468C100.028 17.1468 101.6 18.8346 101.6 21.6647V33.6066H105.419V21.2078C105.419 16.3853 102.749 13.8599 98.7378 13.8599C95.7867 13.8599 93.8576 15.2178 92.9505 17.2864H92.7078V14.1137H89.0412V33.6066H92.8611V22.0327Z" fill="white"/>
<path d="M117.888 33.9873C121.466 33.9873 122.871 31.8172 123.561 30.5735H123.88V33.6066H127.611V7.61607H123.791V17.2737H123.561C122.871 16.0681 121.568 13.8599 117.914 13.8599C113.174 13.8599 109.687 17.5783 109.687 23.8982C109.687 30.2055 113.123 33.9873 117.888 33.9873ZM118.732 30.7512C115.321 30.7512 113.545 27.7689 113.545 23.8601C113.545 19.9895 115.282 17.0833 118.732 17.0833C122.066 17.0833 123.855 19.7864 123.855 23.8601C123.855 27.9592 122.028 30.7512 118.732 30.7512Z" fill="white"/>
<path d="M132.6 2.0491H135.343V9.78195H136.399V2.0491H139.141V1.11845H132.6V2.0491Z" fill="white"/>
<path d="M141.64 5.87322C141.64 4.73952 142.368 4.09653 143.36 4.09653C144.306 4.09653 144.876 4.68876 144.876 5.72093V9.78195H145.881V5.65325C145.881 3.98231 144.987 3.19972 143.65 3.19972C142.619 3.19972 142.032 3.62697 141.725 4.29958H141.64V1.11845H140.635V9.78195H141.64V5.87322Z" fill="white"/>
<path d="M150.463 9.91732C151.791 9.91732 152.762 9.2574 153.069 8.27599L152.098 8.00526C151.842 8.68209 151.25 9.02051 150.463 9.02051C149.283 9.02051 148.47 8.2633 148.423 6.87156H153.171V6.44853C153.171 4.02884 151.723 3.19972 150.36 3.19972C148.589 3.19972 147.413 4.58723 147.413 6.5839C147.413 8.58057 148.572 9.91732 150.463 9.91732ZM148.423 6.00859C148.491 4.99757 149.211 4.09653 150.36 4.09653C151.451 4.09653 152.149 4.90873 152.149 6.00859H148.423Z" fill="white"/>
<path d="M163.932 1.11845V6.77003C163.932 8.0391 163.055 8.95283 161.599 8.95283C160.142 8.95283 159.265 8.0391 159.265 6.77003V1.11845H158.209V6.85463C158.209 8.63133 159.546 9.93424 161.599 9.93424C163.651 9.93424 164.988 8.63133 164.988 6.85463V1.11845H163.932Z" fill="white"/>
<path d="M167.284 9.84964C167.705 9.84964 168.05 9.50699 168.05 9.08819C168.05 8.6694 167.705 8.32675 167.284 8.32675C166.862 8.32675 166.517 8.6694 166.517 9.08819C166.517 9.50699 166.862 9.84964 167.284 9.84964Z" fill="white"/>
<path d="M174.76 3.28432H175.782C175.735 1.97718 174.521 1 172.835 1C171.165 1 169.854 1.96449 169.854 3.41969C169.854 4.58723 170.705 5.28099 172.068 5.67017L173.141 5.97475C174.061 6.22856 174.879 6.55006 174.879 7.41302C174.879 8.3606 173.959 8.98667 172.75 8.98667C171.71 8.98667 170.791 8.5298 170.705 7.54839H169.615C169.717 8.96975 170.876 9.93424 172.75 9.93424C174.76 9.93424 175.901 8.83438 175.901 7.42994C175.901 5.80554 174.351 5.28099 173.448 5.0441L172.562 4.8072C171.915 4.638 170.876 4.29958 170.876 3.36893C170.876 2.5398 171.642 1.93065 172.801 1.93065C173.857 1.93065 174.657 2.42982 174.76 3.28432Z" fill="white"/>
<path d="M178.233 9.84964C178.655 9.84964 179 9.50699 179 9.08819C179 8.6694 178.655 8.32675 178.233 8.32675C177.812 8.32675 177.467 8.6694 177.467 9.08819C177.467 9.50699 177.812 9.84964 178.233 9.84964Z" fill="white"/>
<path d="M10.1904 33.6066L12.5922 26.7282H22.8126L25.2017 33.6066H29.3921L19.9765 7.61607H15.4156L6 33.6066H10.1904ZM13.742 23.4287L17.6002 12.337H17.8046L21.6628 23.4287H13.742Z" stroke="black" stroke-width="2" mask="url(#path-1-outside-1_6432_202)"/>
<path d="M32.8638 33.6066H36.6837V21.7027C36.6837 19.1519 38.6639 17.3118 41.3723 17.3118C42.1644 17.3118 43.0587 17.4514 43.3653 17.5402V13.9107C42.9821 13.8599 42.2283 13.8218 41.7428 13.8218C39.4432 13.8218 37.4758 15.1163 36.7604 17.2102H36.556V14.1137H32.8638V33.6066Z" stroke="black" stroke-width="2" mask="url(#path-1-outside-1_6432_202)"/>
<path d="M54.2342 34C59.766 34 63.3815 29.9771 63.3815 23.949C63.3815 17.8828 59.766 13.8599 54.2342 13.8599C48.7023 13.8599 45.0868 17.8828 45.0868 23.949C45.0868 29.9771 48.7023 34 54.2342 34ZM54.2469 30.8146C50.6314 30.8146 48.9451 27.68 48.9451 23.9363C48.9451 20.2052 50.6314 17.0326 54.2469 17.0326C57.8369 17.0326 59.5232 20.2052 59.5232 23.9363C59.5232 27.68 57.8369 30.8146 54.2469 30.8146Z" stroke="black" stroke-width="2" mask="url(#path-1-outside-1_6432_202)"/>
<path d="M80.0759 25.5226C80.0887 28.8349 77.6102 30.4085 75.464 30.4085C73.1005 30.4085 71.4652 28.708 71.4652 26.0556V14.1137H67.6453V26.5125C67.6453 31.3476 70.3154 33.8604 74.0842 33.8604C77.0353 33.8604 79.0411 32.3121 79.9482 30.2309H80.1526V33.6066H83.9086V14.1137H80.0759V25.5226Z" stroke="black" stroke-width="2" mask="url(#path-1-outside-1_6432_202)"/>
<path d="M92.8611 22.0327C92.8611 18.9235 94.7774 17.1468 97.4347 17.1468C100.028 17.1468 101.6 18.8346 101.6 21.6647V33.6066H105.419V21.2078C105.419 16.3853 102.749 13.8599 98.7378 13.8599C95.7867 13.8599 93.8576 15.2178 92.9505 17.2864H92.7078V14.1137H89.0412V33.6066H92.8611V22.0327Z" stroke="black" stroke-width="2" mask="url(#path-1-outside-1_6432_202)"/>
<path d="M117.888 33.9873C121.466 33.9873 122.871 31.8172 123.561 30.5735H123.88V33.6066H127.611V7.61607H123.791V17.2737H123.561C122.871 16.0681 121.568 13.8599 117.914 13.8599C113.174 13.8599 109.687 17.5783 109.687 23.8982C109.687 30.2055 113.123 33.9873 117.888 33.9873ZM118.732 30.7512C115.321 30.7512 113.545 27.7689 113.545 23.8601C113.545 19.9895 115.282 17.0833 118.732 17.0833C122.066 17.0833 123.855 19.7864 123.855 23.8601C123.855 27.9592 122.028 30.7512 118.732 30.7512Z" stroke="black" stroke-width="2" mask="url(#path-1-outside-1_6432_202)"/>
<path d="M132.6 2.0491H135.343V9.78195H136.399V2.0491H139.141V1.11845H132.6V2.0491Z" stroke="black" stroke-width="2" mask="url(#path-1-outside-1_6432_202)"/>
<path d="M141.64 5.87322C141.64 4.73952 142.368 4.09653 143.36 4.09653C144.306 4.09653 144.876 4.68876 144.876 5.72093V9.78195H145.881V5.65325C145.881 3.98231 144.987 3.19972 143.65 3.19972C142.619 3.19972 142.032 3.62697 141.725 4.29958H141.64V1.11845H140.635V9.78195H141.64V5.87322Z" stroke="black" stroke-width="2" mask="url(#path-1-outside-1_6432_202)"/>
<path d="M150.463 9.91732C151.791 9.91732 152.762 9.2574 153.069 8.27599L152.098 8.00526C151.842 8.68209 151.25 9.02051 150.463 9.02051C149.283 9.02051 148.47 8.2633 148.423 6.87156H153.171V6.44853C153.171 4.02884 151.723 3.19972 150.36 3.19972C148.589 3.19972 147.413 4.58723 147.413 6.5839C147.413 8.58057 148.572 9.91732 150.463 9.91732ZM148.423 6.00859C148.491 4.99757 149.211 4.09653 150.36 4.09653C151.451 4.09653 152.149 4.90873 152.149 6.00859H148.423Z" stroke="black" stroke-width="2" mask="url(#path-1-outside-1_6432_202)"/>
<path d="M163.932 1.11845V6.77003C163.932 8.0391 163.055 8.95283 161.599 8.95283C160.142 8.95283 159.265 8.0391 159.265 6.77003V1.11845H158.209V6.85463C158.209 8.63133 159.546 9.93424 161.599 9.93424C163.651 9.93424 164.988 8.63133 164.988 6.85463V1.11845H163.932Z" stroke="black" stroke-width="2" mask="url(#path-1-outside-1_6432_202)"/>
<path d="M167.284 9.84964C167.705 9.84964 168.05 9.50699 168.05 9.08819C168.05 8.6694 167.705 8.32675 167.284 8.32675C166.862 8.32675 166.517 8.6694 166.517 9.08819C166.517 9.50699 166.862 9.84964 167.284 9.84964Z" stroke="black" stroke-width="2" mask="url(#path-1-outside-1_6432_202)"/>
<path d="M174.76 3.28432H175.782C175.735 1.97718 174.521 1 172.835 1C171.165 1 169.854 1.96449 169.854 3.41969C169.854 4.58723 170.705 5.28099 172.068 5.67017L173.141 5.97475C174.061 6.22856 174.879 6.55006 174.879 7.41302C174.879 8.3606 173.959 8.98667 172.75 8.98667C171.71 8.98667 170.791 8.5298 170.705 7.54839H169.615C169.717 8.96975 170.876 9.93424 172.75 9.93424C174.76 9.93424 175.901 8.83438 175.901 7.42994C175.901 5.80554 174.351 5.28099 173.448 5.0441L172.562 4.8072C171.915 4.638 170.876 4.29958 170.876 3.36893C170.876 2.5398 171.642 1.93065 172.801 1.93065C173.857 1.93065 174.657 2.42982 174.76 3.28432Z" stroke="black" stroke-width="2" mask="url(#path-1-outside-1_6432_202)"/>
<path d="M178.233 9.84964C178.655 9.84964 179 9.50699 179 9.08819C179 8.6694 178.655 8.32675 178.233 8.32675C177.812 8.32675 177.467 8.6694 177.467 9.08819C177.467 9.50699 177.812 9.84964 178.233 9.84964Z" stroke="black" stroke-width="2" mask="url(#path-1-outside-1_6432_202)"/>
</g>
<defs>
<filter id="filter0_d_6432_202" x="0.574097" y="0" width="183.426" height="43" filterUnits="userSpaceOnUse" color-interpolation-filters="sRGB">
<feFlood flood-opacity="0" result="BackgroundImageFix"/>
<feColorMatrix in="SourceAlpha" type="matrix" values="0 0 0 0 0 0 0 0 0 0 0 0 0 0 0 0 0 0 127 0" result="hardAlpha"/>
<feOffset dy="4"/>
<feGaussianBlur stdDeviation="2"/>
<feComposite in2="hardAlpha" operator="out"/>
<feColorMatrix type="matrix" values="0 0 0 0 0 0 0 0 0 0 0 0 0 0 0 0 0 0 0.25 0"/>
<feBlend mode="normal" in2="BackgroundImageFix" result="effect1_dropShadow_6432_202"/>
<feBlend mode="normal" in="SourceGraphic" in2="effect1_dropShadow_6432_202" result="shape"/>
</filter>
</defs>
</svg>
